<svg xmlns="http://www.w3.org/2000/svg" fill="none" viewBox="0 0 13 17">
  <g clip-path="url(#a)">
    <path fill="#000" d="M4.604 10.625h-.542c-.148 0-.27.12-.27.266v3.187a.27.27 0 0 0 .27.266h.542a.27.27 0 0 0 .271-.266v-3.187a.269.269 0 0 0-.27-.266Zm2.167-3.188h-.542a.27.27 0 0 0-.27.266v6.375a.27.27 0 0 0 .27.266h.542a.27.27 0 0 0 .27-.266V7.703a.27.27 0 0 0-.27-.266Zm1.354 2.391v4.25a.27.27 0 0 0 .27.266h.543a.27.27 0 0 0 .27-.266v-4.25a.27.27 0 0 0-.27-.265h-.542a.27.27 0 0 0-.271.265Zm4.398-6.575L9.683.468A1.641 1.641 0 0 0 8.536 0H1.625C.728.003 0 .717 0 1.597v13.81C0 16.287.728 17 1.625 17h9.75c.897 0 1.625-.714 1.625-1.593V4.382c0-.422-.173-.83-.477-1.129Zm-3.855-2.17c.094.022.18.069.25.139l2.84 2.785a.52.52 0 0 1 .142.245H8.668v-3.17Zm3.249 14.324a.538.538 0 0 1-.542.53h-9.75a.538.538 0 0 1-.542-.53V1.597a.54.54 0 0 1 .542-.534h5.96v3.455a.8.8 0 0 0 .812.795h3.52v10.094Z"/>
  </g>
  <defs>
    <clipPath id="a">
      <path fill="#fff" d="M0 0h13v17H0z"/>
    </clipPath>
  </defs>
</svg>