<svg xmlns="http://www.w3.org/2000/svg" fill="none" viewBox="0 0 15 17">
  <path fill="#000" d="m8.85 8.324-2.411-.67a.933.933 0 0 1-.69-.887c0-.508.428-.923.954-.923H8.21c.375 0 .733.12 1.024.335.108.08.255.067.349-.026l.378-.382a.265.265 0 0 0-.027-.399 2.777 2.777 0 0 0-1.728-.594h-.17V3.45a.268.268 0 0 0-.268-.266h-.536a.268.268 0 0 0-.268.266v1.328h-.26c-1.116 0-2.027.89-2.027 1.985 0 .884.606 1.667 1.47 1.91l2.411.67c.405.113.69.478.69.887 0 .508-.429.923-.954.923H6.787a1.72 1.72 0 0 1-1.025-.335.267.267 0 0 0-.348.026l-.378.382a.265.265 0 0 0 .027.398 2.777 2.777 0 0 0 1.727.595h.174v1.328c0 .146.12.265.268.265h.536c.147 0 .268-.119.268-.265v-1.328h.26c1.116 0 2.027-.89 2.027-1.986a2.004 2.004 0 0 0-1.474-1.909Zm4.543-7.261H1.607A1.6 1.6 0 0 0 0 2.655v11.688a1.6 1.6 0 0 0 1.607 1.594h11.786A1.6 1.6 0 0 0 15 14.344V2.656a1.6 1.6 0 0 0-1.607-1.594Zm.536 13.28a.535.535 0 0 1-.536.532H1.607a.535.535 0 0 1-.536-.531V2.656c0-.292.242-.531.536-.531h11.786c.294 0 .536.24.536.531v11.688Z"/>
</svg>